<mxfile host="Electron" agent="Mozilla/5.0 (Windows NT 10.0; Win64; x64) AppleWebKit/537.36 (KHTML, like Gecko) draw.io/24.7.5 Chrome/126.0.6478.183 Electron/31.3.0 Safari/537.36" version="24.7.5">
  <diagram name="Page-1" id="1jRijG25G5cU1sSziAAH">
    <mxGraphModel dx="1050" dy="621" grid="1" gridSize="10" guides="1" tooltips="1" connect="1" arrows="1" fold="1" page="1" pageScale="1" pageWidth="1169" pageHeight="827" math="0" shadow="0">
      <root>
        <mxCell id="0" />
        <mxCell id="1" parent="0" />
        <mxCell id="7vY0fWxxl4XzrHKb_Evt-1" value="IF" style="rounded=0;whiteSpace=wrap;html=1;fontSize=33;fontStyle=1;strokeWidth=2;" vertex="1" parent="1">
          <mxGeometry x="190" y="240" width="80" height="160" as="geometry" />
        </mxCell>
        <mxCell id="7vY0fWxxl4XzrHKb_Evt-2" value="ID" style="rounded=0;whiteSpace=wrap;html=1;fontSize=33;fontStyle=1;strokeWidth=2;" vertex="1" parent="1">
          <mxGeometry x="360" y="240" width="80" height="160" as="geometry" />
        </mxCell>
        <mxCell id="7vY0fWxxl4XzrHKb_Evt-16" style="edgeStyle=orthogonalEdgeStyle;rounded=0;orthogonalLoop=1;jettySize=auto;html=1;entryX=0;entryY=0.5;entryDx=0;entryDy=0;fontStyle=1;fontSize=33;strokeWidth=2;" edge="1" parent="1" source="7vY0fWxxl4XzrHKb_Evt-3" target="7vY0fWxxl4XzrHKb_Evt-9">
          <mxGeometry relative="1" as="geometry" />
        </mxCell>
        <mxCell id="7vY0fWxxl4XzrHKb_Evt-3" value="EX" style="rounded=0;whiteSpace=wrap;html=1;fontSize=33;fontStyle=1;strokeWidth=2;" vertex="1" parent="1">
          <mxGeometry x="530" y="240" width="80" height="160" as="geometry" />
        </mxCell>
        <mxCell id="7vY0fWxxl4XzrHKb_Evt-18" style="edgeStyle=orthogonalEdgeStyle;rounded=0;orthogonalLoop=1;jettySize=auto;html=1;entryX=0;entryY=0.5;entryDx=0;entryDy=0;fontStyle=1;fontSize=33;strokeWidth=2;" edge="1" parent="1" source="7vY0fWxxl4XzrHKb_Evt-4" target="7vY0fWxxl4XzrHKb_Evt-10">
          <mxGeometry relative="1" as="geometry" />
        </mxCell>
        <mxCell id="7vY0fWxxl4XzrHKb_Evt-4" value="MA" style="rounded=0;whiteSpace=wrap;html=1;fontSize=33;fontStyle=1;strokeWidth=2;" vertex="1" parent="1">
          <mxGeometry x="700" y="240" width="80" height="160" as="geometry" />
        </mxCell>
        <mxCell id="7vY0fWxxl4XzrHKb_Evt-5" value="" style="rounded=0;whiteSpace=wrap;html=1;fontSize=33;fontStyle=1;strokeWidth=2;fillColor=#dae8fc;strokeColor=#6c8ebf;" vertex="1" parent="1">
          <mxGeometry x="300" y="200" width="30" height="240" as="geometry" />
        </mxCell>
        <mxCell id="7vY0fWxxl4XzrHKb_Evt-6" value="" style="rounded=0;whiteSpace=wrap;html=1;fontSize=33;fontStyle=1;strokeWidth=2;fillColor=#dae8fc;strokeColor=#6c8ebf;" vertex="1" parent="1">
          <mxGeometry x="470" y="200" width="30" height="240" as="geometry" />
        </mxCell>
        <mxCell id="7vY0fWxxl4XzrHKb_Evt-8" value="WB" style="rounded=0;whiteSpace=wrap;html=1;fontSize=33;fontStyle=1;strokeWidth=2;" vertex="1" parent="1">
          <mxGeometry x="870" y="240" width="80" height="160" as="geometry" />
        </mxCell>
        <mxCell id="7vY0fWxxl4XzrHKb_Evt-17" style="edgeStyle=orthogonalEdgeStyle;rounded=0;orthogonalLoop=1;jettySize=auto;html=1;entryX=0;entryY=0.5;entryDx=0;entryDy=0;fontStyle=1;fontSize=33;strokeWidth=2;" edge="1" parent="1" source="7vY0fWxxl4XzrHKb_Evt-9" target="7vY0fWxxl4XzrHKb_Evt-4">
          <mxGeometry relative="1" as="geometry" />
        </mxCell>
        <mxCell id="7vY0fWxxl4XzrHKb_Evt-9" value="" style="rounded=0;whiteSpace=wrap;html=1;fontSize=33;fontStyle=1;strokeWidth=2;fillColor=#dae8fc;strokeColor=#6c8ebf;" vertex="1" parent="1">
          <mxGeometry x="640" y="200" width="30" height="240" as="geometry" />
        </mxCell>
        <mxCell id="7vY0fWxxl4XzrHKb_Evt-19" style="edgeStyle=orthogonalEdgeStyle;rounded=0;orthogonalLoop=1;jettySize=auto;html=1;entryX=0;entryY=0.5;entryDx=0;entryDy=0;fontStyle=1;fontSize=33;strokeWidth=2;" edge="1" parent="1" source="7vY0fWxxl4XzrHKb_Evt-10" target="7vY0fWxxl4XzrHKb_Evt-8">
          <mxGeometry relative="1" as="geometry" />
        </mxCell>
        <mxCell id="7vY0fWxxl4XzrHKb_Evt-10" value="" style="rounded=0;whiteSpace=wrap;html=1;fontSize=33;fontStyle=1;strokeWidth=2;fillColor=#dae8fc;strokeColor=#6c8ebf;" vertex="1" parent="1">
          <mxGeometry x="810" y="200" width="30" height="240" as="geometry" />
        </mxCell>
        <mxCell id="7vY0fWxxl4XzrHKb_Evt-11" value="" style="endArrow=classic;html=1;rounded=0;exitX=1;exitY=0.5;exitDx=0;exitDy=0;entryX=0;entryY=0.5;entryDx=0;entryDy=0;fontStyle=1;fontSize=33;strokeWidth=2;" edge="1" parent="1" source="7vY0fWxxl4XzrHKb_Evt-1" target="7vY0fWxxl4XzrHKb_Evt-5">
          <mxGeometry width="50" height="50" relative="1" as="geometry">
            <mxPoint x="490" y="340" as="sourcePoint" />
            <mxPoint x="540" y="290" as="targetPoint" />
          </mxGeometry>
        </mxCell>
        <mxCell id="7vY0fWxxl4XzrHKb_Evt-13" value="" style="endArrow=classic;html=1;rounded=0;exitX=1;exitY=0.5;exitDx=0;exitDy=0;entryX=0;entryY=0.5;entryDx=0;entryDy=0;fontStyle=1;fontSize=33;strokeWidth=2;" edge="1" parent="1">
          <mxGeometry width="50" height="50" relative="1" as="geometry">
            <mxPoint x="330" y="319.71" as="sourcePoint" />
            <mxPoint x="360" y="319.71" as="targetPoint" />
          </mxGeometry>
        </mxCell>
        <mxCell id="7vY0fWxxl4XzrHKb_Evt-14" value="" style="endArrow=classic;html=1;rounded=0;exitX=1;exitY=0.5;exitDx=0;exitDy=0;entryX=0;entryY=0.5;entryDx=0;entryDy=0;fontStyle=1;fontSize=33;strokeWidth=2;" edge="1" parent="1">
          <mxGeometry width="50" height="50" relative="1" as="geometry">
            <mxPoint x="440" y="319.71" as="sourcePoint" />
            <mxPoint x="470" y="319.71" as="targetPoint" />
          </mxGeometry>
        </mxCell>
        <mxCell id="7vY0fWxxl4XzrHKb_Evt-15" value="" style="endArrow=classic;html=1;rounded=0;exitX=1;exitY=0.5;exitDx=0;exitDy=0;entryX=0;entryY=0.5;entryDx=0;entryDy=0;fontStyle=1;fontSize=33;strokeWidth=2;" edge="1" parent="1">
          <mxGeometry width="50" height="50" relative="1" as="geometry">
            <mxPoint x="500" y="319.71" as="sourcePoint" />
            <mxPoint x="530" y="319.71" as="targetPoint" />
          </mxGeometry>
        </mxCell>
        <mxCell id="7vY0fWxxl4XzrHKb_Evt-20" value="" style="triangle;whiteSpace=wrap;html=1;strokeWidth=2;" vertex="1" parent="1">
          <mxGeometry x="300" y="384" width="20" height="30" as="geometry" />
        </mxCell>
        <mxCell id="7vY0fWxxl4XzrHKb_Evt-21" value="" style="triangle;whiteSpace=wrap;html=1;strokeWidth=2;" vertex="1" parent="1">
          <mxGeometry x="470" y="384" width="20" height="30" as="geometry" />
        </mxCell>
        <mxCell id="7vY0fWxxl4XzrHKb_Evt-22" value="" style="triangle;whiteSpace=wrap;html=1;strokeWidth=2;" vertex="1" parent="1">
          <mxGeometry x="640" y="384" width="20" height="30" as="geometry" />
        </mxCell>
        <mxCell id="7vY0fWxxl4XzrHKb_Evt-23" value="" style="triangle;whiteSpace=wrap;html=1;strokeWidth=2;" vertex="1" parent="1">
          <mxGeometry x="810" y="384" width="20" height="30" as="geometry" />
        </mxCell>
      </root>
    </mxGraphModel>
  </diagram>
</mxfile>
